<svg width="73" height="73" viewBox="0 0 73 73" fill="none" xmlns="http://www.w3.org/2000/svg">
<path d="M0.0124512 36.4734C0.21204 16.2003 16.2759 0.00524309 36.525 0.0124536C56.8269 0.0196641 73.0221 16.2607 72.9876 36.5704C72.9531 56.814 56.7519 73.0152 36.4719 72.9876C16.2226 72.9602 0.18796 56.764 0.0124512 36.4734ZM31.9191 19.3806C27.8024 19.3955 24.3526 19.6295 20.9251 20.124C18.5635 20.4649 16.2246 20.9475 13.9424 21.6544C12.1648 22.2051 11.1487 23.8322 11.4935 25.4565C11.9535 27.6247 13.761 28.6774 16.0014 28.0187C19.6503 26.9459 23.3894 26.3698 27.1692 26.2097C31.9645 26.0063 36.7616 26.0779 41.5249 26.8524C47.3075 27.7927 52.8915 29.3064 58.0086 32.2695C59.6892 33.2424 61.6866 32.7369 62.6612 31.1406C63.6107 29.5854 63.0656 27.5245 61.4117 26.5118C59.9953 25.6445 58.5083 24.908 56.9816 24.2566C48.7667 20.7513 40.1226 19.5096 31.9191 19.3806ZM30.4529 31.9512C28.9962 31.9785 27.5457 32.0007 26.092 32.1205C22.6871 32.4012 19.3415 32.9729 16.0672 33.9465C15.2969 34.1755 14.6194 34.5629 14.2369 35.3257C13.6855 36.4249 13.7838 37.465 14.5343 38.4347C15.207 39.3042 16.3906 39.6252 17.6165 39.2738C25.2443 37.0876 32.9371 37.012 40.6751 38.5801C45.2744 39.5123 49.6211 41.1157 53.6836 43.4912C55.23 44.3955 56.7964 43.9994 57.6357 42.6173C58.4517 41.2736 58.0001 39.6741 56.4913 38.7176C55.7304 38.2353 54.94 37.7934 54.1357 37.3874C46.6881 33.6285 38.7488 32.0089 30.4529 31.9514V31.9512ZM30.373 43.8428C27.7898 43.7886 24.7262 44.1096 21.6802 44.6016C20.1883 44.8428 18.704 45.1417 17.228 45.4674C15.9753 45.7439 15.2514 46.8016 15.4334 47.9687C15.6181 49.1537 16.5865 49.879 17.9037 49.7713C18.4225 49.729 18.9364 49.6057 19.4485 49.5C25.3274 48.2889 31.2359 47.7931 37.2111 48.7079C41.7788 49.4071 46.069 50.8688 50.0461 53.2453C51.259 53.97 52.5718 53.6088 53.2192 52.4693C53.8038 51.4407 53.42 50.1502 52.29 49.464C51.4946 48.9811 50.6886 48.5105 49.8575 48.0935C43.8877 45.0979 37.5334 43.8065 30.3732 43.8423L30.373 43.8428Z" fill="#F30B0B"/>
</svg>
