<svg width="44" height="44" viewBox="0 0 44 44" fill="none" xmlns="http://www.w3.org/2000/svg">
<path d="M0.544922 21.8027C0.661207 9.99101 10.0205 0.555371 21.8181 0.559572C33.6465 0.563773 43.0823 10.0262 43.0622 21.8592C43.0421 33.6536 33.6028 43.0929 21.7871 43.0768C9.98936 43.0609 0.647178 33.6245 0.544922 21.8027ZM19.1346 11.8439C16.7361 11.8526 14.7261 11.989 12.7292 12.2771C11.3533 12.4757 9.99052 12.7569 8.6609 13.1687C7.62518 13.4896 7.03319 14.4376 7.23409 15.384C7.50209 16.6472 8.55517 17.2605 9.86049 16.8768C11.9865 16.2517 14.1649 15.916 16.3671 15.8227C19.161 15.7043 21.9559 15.746 24.7311 16.1972C28.1002 16.7451 31.3536 17.627 34.335 19.3533C35.3141 19.9202 36.4779 19.6257 37.0457 18.6957C37.5989 17.7895 37.2813 16.5888 36.3178 15.9988C35.4925 15.4935 34.6261 15.0644 33.7366 14.6849C28.9504 12.6426 23.9141 11.9191 19.1346 11.8439ZM18.2803 19.1679C17.4316 19.1839 16.5865 19.1967 15.7396 19.2666C13.7558 19.4301 11.8065 19.7632 9.89882 20.3304C9.45002 20.4639 9.05531 20.6896 8.83243 21.134C8.5112 21.7744 8.56848 22.3804 9.0057 22.9454C9.39766 23.4519 10.0873 23.639 10.8015 23.4343C15.2456 22.1605 19.7277 22.1165 24.2361 23.0301C26.9157 23.5732 29.4482 24.5074 31.8152 25.8914C32.7161 26.4183 33.6287 26.1875 34.1177 25.3822C34.5931 24.5994 34.3301 23.6675 33.451 23.1102C33.0077 22.8292 32.5472 22.5718 32.0785 22.3352C27.7394 20.1452 23.1137 19.2015 18.2803 19.1681V19.1679ZM18.2338 26.0963C16.7287 26.0647 14.9438 26.2517 13.1691 26.5384C12.2999 26.6789 11.4351 26.853 10.5751 27.0428C9.8453 27.2039 9.42355 27.8201 9.52957 28.5001C9.63718 29.1905 10.2014 29.6131 10.9688 29.5504C11.2711 29.5258 11.5705 29.4539 11.8689 29.3923C15.2941 28.6867 18.7365 28.3979 22.2178 28.9308C24.8791 29.3382 27.3787 30.1898 29.6958 31.5744C30.4025 31.9967 31.1674 31.7862 31.5446 31.1223C31.8852 30.523 31.6616 29.7712 31.0032 29.3713C30.5398 29.09 30.0702 28.8158 29.5859 28.5728C26.1078 26.8275 22.4056 26.0751 18.2339 26.096L18.2338 26.0963Z" fill="white"/>
</svg>
