<svg width="40" height="39" viewBox="0 0 40 39" fill="none" xmlns="http://www.w3.org/2000/svg">
<path d="M29.9506 38.7546H10.4377C9.18452 38.5597 7.95812 38.2673 6.83262 37.6627C3.1767 35.6981 1.0706 32.6528 0.986081 28.494C0.865338 22.5319 0.95417 16.5655 0.956758 10.6008C0.956758 9.59172 1.1534 8.61198 1.46302 7.65725C2.89641 3.2303 7.08791 0.255709 11.7029 0.289345C17.3674 0.330742 23.032 0.298832 28.6966 0.299694C29.1968 0.299694 29.6962 0.302282 30.1921 0.380764C33.9282 0.97068 36.6604 2.9431 38.381 6.31355C38.939 7.40628 39.2167 8.58266 39.4073 9.78405V29.297C39.3694 29.4927 39.3289 29.6877 39.2935 29.8843C38.6398 33.4583 36.676 36.0568 33.453 37.7136C32.3516 38.2794 31.1649 38.5631 29.9514 38.7537L29.9506 38.7546ZM20.1989 3.80383V3.79606C17.4218 3.79606 14.6456 3.79606 11.8685 3.79606C11.3812 3.79606 10.8956 3.81245 10.4109 3.88058C7.19658 4.33596 4.48073 7.35712 4.4652 10.6051C4.43674 16.5086 4.45571 22.4129 4.45313 28.3164C4.45313 28.6553 4.49107 28.9891 4.53765 29.3237C4.98785 32.5389 8.01246 35.2548 11.2596 35.2703C17.163 35.2988 23.0674 35.2798 28.9708 35.2824C29.3098 35.2824 29.6435 35.2444 29.9782 35.1978C33.1934 34.7476 35.9092 31.7239 35.9248 28.4759C35.9532 22.5724 35.9343 16.6681 35.9368 10.7647C35.9368 10.4257 35.8989 10.0919 35.8523 9.75731C35.4021 6.5421 32.3784 3.84091 29.1304 3.809C26.1541 3.77968 23.1769 3.80296 20.1997 3.80296L20.1989 3.80383Z" fill="white"/>
<path d="M10.26 19.5427C10.26 14.0601 14.7034 9.61076 20.1834 9.60731C25.6832 9.60386 30.1343 14.0575 30.1283 19.5591C30.1222 25.0374 25.6703 29.4781 20.186 29.4756C14.7051 29.473 10.26 25.0253 10.26 19.5427ZM26.6276 19.5479C26.6302 15.9765 23.7617 13.1063 20.1911 13.1071C16.637 13.1071 13.7676 15.967 13.7598 19.5151C13.7521 23.0917 16.6111 25.9697 20.1773 25.9749C23.7505 25.9801 26.625 23.1159 26.6276 19.5479Z" fill="white"/>
<path d="M30.5073 11.7724C29.1032 11.7706 27.976 10.6495 27.9752 9.25402C27.9743 7.86979 29.1067 6.72445 30.497 6.70462C31.876 6.68478 33.0593 7.86979 33.0507 9.26178C33.042 10.6589 31.9114 11.775 30.5082 11.7732L30.5073 11.7724Z" fill="white"/>
</svg>
