<svg width="67" height="67" viewBox="0 0 67 67" fill="none" xmlns="http://www.w3.org/2000/svg">
<path d="M49.8775 66.8305H16.3862C14.2354 66.496 12.1304 65.9941 10.1986 64.9565C3.92373 61.5844 0.30889 56.3575 0.163822 49.2196C-0.0434166 38.9865 0.109052 28.7459 0.113493 18.5083C0.113493 16.7763 0.450997 15.0947 0.982417 13.4561C3.44264 5.85781 10.6368 0.752324 18.5578 0.810055C28.2802 0.881108 38.0027 0.826338 47.7252 0.827818C48.5838 0.827818 49.4408 0.832259 50.292 0.966964C56.7046 1.97948 61.3941 5.36487 64.3472 11.1498C65.305 13.0253 65.7816 15.0444 66.1088 17.1064V50.5978C66.0436 50.9338 65.9741 51.2683 65.9134 51.6058C64.7913 57.7401 61.4207 62.2002 55.8889 65.0438C53.9986 66.0149 51.9618 66.5019 49.879 66.829L49.8775 66.8305ZM33.14 6.84219V6.82887C28.3735 6.82887 23.6085 6.82887 18.842 6.82887C18.0056 6.82887 17.1722 6.857 16.3403 6.97394C10.8233 7.75552 6.16191 12.9409 6.13527 18.5157C6.08642 28.6482 6.11899 38.7822 6.11454 48.9147C6.11454 49.4964 6.17968 50.0693 6.25961 50.6437C7.03232 56.1621 12.2237 60.8235 17.7969 60.8502C27.9294 60.899 38.0634 60.8665 48.1959 60.8709C48.7777 60.8709 49.3505 60.8058 49.9249 60.7258C55.4434 59.9531 60.1048 54.7633 60.1314 49.1885C60.1803 39.056 60.1477 28.922 60.1521 18.7895C60.1521 18.2078 60.087 17.6349 60.0071 17.0606C59.2344 11.5421 54.0445 6.90584 48.4698 6.85107C43.3613 6.80074 38.2514 6.84071 33.1415 6.84071L33.14 6.84219Z" fill="#F30B0B"/>
<path d="M16.0812 33.8556C16.0812 24.4455 23.7076 16.8087 33.1133 16.8028C42.553 16.7969 50.1927 24.441 50.1824 33.8837C50.172 43.2865 42.5308 50.9084 33.1177 50.904C23.7105 50.8995 16.0812 43.2658 16.0812 33.8556ZM44.1739 33.8645C44.1784 27.7347 39.2549 22.8083 33.1266 22.8098C27.0264 22.8098 22.1015 27.7184 22.0881 33.8082C22.0748 39.947 26.982 44.8867 33.1029 44.8955C39.2357 44.9044 44.1695 39.9884 44.1739 33.8645Z" fill="#F30B0B"/>
<path d="M50.8336 20.5197C48.4238 20.5167 46.489 18.5924 46.4875 16.1973C46.4861 13.8214 48.4297 11.8556 50.8159 11.8216C53.1828 11.7875 55.2138 13.8214 55.199 16.2106C55.1842 18.6087 53.2435 20.5242 50.8351 20.5212L50.8336 20.5197Z" fill="#F30B0B"/>
</svg>
