<?xml version="1.0" encoding="UTF-8"?><svg id="Layer_1" xmlns="http://www.w3.org/2000/svg" viewBox="0 0 163.48 159.5"><defs><style>.cls-1{fill:#f30b0b;}</style></defs><path class="cls-1" d="M64.25,35.4c-.06-.09-.13-.18-.19-.27-.02-.03-.04-.05-.06-.07l-.02-.02c.23,.35,.37,.54,.44,.64-.06-.09-.11-.19-.17-.27Z"/><path class="cls-1" d="M59.62,126.25c-1.06,.71-.4,.3,0,0h0Z"/><path class="cls-1" d="M63.25,122.55c-.84,.95-.27,.36,0,0h0Z"/><path class="cls-1" d="M129.47,34.82c-.1-.08-.21-.15-.31-.22-.02-.01-.04-.02-.06-.04,.08,.06,.23,.17,.47,.34-.03-.02-.06-.05-.09-.07Z"/><path class="cls-1" d="M147.54,47.57c-.4-5.19-1.56-10.31-4.16-14.87-2.6-4.57-6.68-8.36-11.51-10.47-3.51-1.54-7.12-2.44-10.98-2.47-3.36-.02-6.84,.56-10.01,1.67-6.01,2.12-11.32,5.8-15.55,10.55-6.71,7.5-10.89,16.79-13.91,26.33-.96-.99-2.04-1.9-3.22-2.69,1.27-7.02,1.72-14.41-.84-21.1-2.4-6.27-6.99-11.6-13.24-14.28-3.3-1.41-6.67-2.28-10.3-2.31-3.68-.03-7.14,.86-10.48,2.32-6.96,3.05-11.83,9.68-14.74,16.48-6.76,15.82-7.37,33.04-5.79,49.95,.81,8.62,1.83,17.31,4.11,25.68,1.58,5.81,3.5,11.83,6.54,17.05,1.56,2.68,3.52,5.28,5.94,7.24,3.36,2.72,7.08,4.35,11.41,4.74,8.07,.73,15.56-4.01,20.74-9.94,4.95,4.07,10.84,6.66,17.3,7.28,14.67,1.41,25.93-11.57,33.42-22.47,3.59-5.23,6.65-10.8,9.55-16.43,3.29-6.37,6.36-12.83,9.03-19.49,4.1-10.24,7.55-21.61,6.68-32.78Zm-44.78-5.63c-.15,.19-.29,.38-.44,.57,.14-.2,.28-.4,.44-.57Zm-36.69,24.02s-.09,.09-.21,.19c.11-.1,.21-.18,.21-.19Zm-4.74,58.75c-.5,.5-1.02,.97-1.56,1.43-.04,.03-.09,.07-.14,.11,.07-.05,.14-.09,.22-.15-.27,.18-.53,.39-.8,.57-1,.69-2.06,1.29-3.16,1.82-.9,.33-1.82,.59-2.76,.77-.65,.05-1.31,.05-1.96,0-.6-.13-1.2-.29-1.78-.5-.38-.19-.75-.38-1.11-.6-.24-.14-.47-.3-.69-.46-.7-.63-1.35-1.28-1.96-1.98-.02-.05-.77-1.01-1-1.36-.37-.57-.71-1.15-1.04-1.75-.53-.97-1.01-1.97-1.46-2.98-3.21-7.87-5.1-16.26-6.26-24.66-1.52-11.8-2.41-23.83-.96-35.67,.85-5.88,2.3-11.68,4.53-17.2,.59-1.33,1.24-2.63,1.98-3.89,.4-.68,.82-1.34,1.27-1.99,.08-.11,.16-.23,.24-.34,.23-.27,.45-.56,.68-.82,.6-.68,1.25-1.33,1.93-1.94,.17-.15,.34-.29,.51-.44,.87-.62,1.79-1.15,2.75-1.62,1.04-.39,2.11-.68,3.2-.88,1.12-.1,2.25-.1,3.37,0,1.13,.2,2.23,.51,3.3,.9,.87,.4,1.71,.85,2.51,1.37,.17,.11,.34,.23,.5,.34,.38,.32,.76,.65,1.12,1,.4,.4,.79,.81,1.16,1.24-.05-.08-.1-.15-.16-.24,.08,.11,.16,.22,.24,.34,.24,.3,.54,.8,.36,.55,.49,.74,.91,1.52,1.29,2.33,.53,1.45,.91,2.95,1.16,4.48,.27,2.74,.17,5.5-.14,8.23-.12,.79-.25,1.59-.4,2.38-1.83,.32-3.61,.92-5.32,1.81-6.76,3.5-10.35,10.64-11.32,17.91-.94,6.97,.21,14.19,1.73,21.01,1.5,6.77,3.85,13.33,6.88,19.56,1.48,3.05,3.17,6.08,5.11,8.93-.04,.06-.08,.13-.12,.19,0,.01-.02,.03-.03,.04,.05-.06,.11-.13,.18-.2h0c-.2,.23-.38,.47-.57,.7-.49,.58-1,1.13-1.54,1.66Zm2.85-57.01c.07-.11,.06-.09,0,0h0Zm71-11.51c-1.14,7.81-3.75,15.43-6.77,22.7-3.17,7.39-6.8,14.62-10.72,21.64-1.95,3.49-4.02,6.91-6.31,10.19-.57,.82-1.16,1.63-1.77,2.44-.06,.08-.12,.16-.18,.24-.36,.44-.71,.89-1.07,1.33-1.29,1.57-2.65,3.08-4.08,4.54-.75,.76-1.52,1.51-2.31,2.23-.41,.37-.83,.74-1.26,1.1-.12,.1-.25,.2-.37,.3-1.52,1.1-3.1,2.07-4.79,2.86-1,.36-2.01,.64-3.05,.84-1.2,.1-2.39,.1-3.59,0-1.48-.26-2.92-.66-4.33-1.19-.95-.43-1.88-.9-2.77-1.45-.51-.31-1.02-.65-1.51-1-.06-.04-.21-.15-.35-.26-.07-.06-.14-.11-.18-.14-1.05-.87-2.03-1.81-2.96-2.8-.28-.29-.54-.6-.8-.9-.35-.62-.81-1.2-1.35-1.66-2.87-4.03-5.24-8.36-7.22-12.89-2.69-6.57-4.51-13.44-5.52-20.46-.38-3.14-.56-6.3-.25-9.45,.25-1.45,.61-2.86,1.12-4.24,.27-.56,.55-1.11,.88-1.64,.05-.08,.11-.16,.16-.24,.25-.25,.7-.85,.76-.92,.28-.3,.58-.58,.89-.86,.02-.02,.11-.09,.21-.17,.56-.36,1.13-.69,1.72-.99,.37-.12,.75-.23,1.13-.32,.34-.02,.68-.02,1.03,0,.39,.09,.77,.2,1.14,.32,.33,.17,.66,.36,.97,.57,.05,.03,.08,.05,.12,.08,.18,.15,.35,.31,.53,.47,.51,.48,1,1,1.45,1.54,.03,.04,.06,.07,.08,.1,.17,.24,.35,.48,.51,.73,1.72,2.53,3.13,5.27,4.36,8.06,1.6,3.99,2.75,8.14,3.4,12.4,.3,2.54,.43,5.09,.38,7.65-.07,3.18,2.85,6.23,6.08,6.08,3.35-.15,6.01-2.67,6.08-6.08,.15-6.76-.87-13.66-3.02-20.08-.47-1.4-.99-2.81-1.55-4.22,1.56-6.33,3.35-12.63,5.82-18.67,.95-2.17,1.98-4.3,3.15-6.36,.63-1.1,1.29-2.19,2-3.25,.32-.49,.66-.97,1-1.44,.08-.11,.15-.22,.23-.33,.08-.1,.15-.19,.23-.29,1.58-1.96,3.33-3.78,5.26-5.4,.17-.14,.34-.28,.51-.41,.03-.02,.07-.05,.1-.07,.49-.36,.99-.7,1.5-1.03,1.1-.7,2.25-1.3,3.43-1.85,1.69-.65,3.43-1.13,5.21-1.43,1.42-.13,2.84-.14,4.26-.01,1.2,.22,2.36,.54,3.51,.96,.97,.45,1.91,.95,2.8,1.55-.25-.18,.09,.04,.38,.26,.16,.12,.33,.24,.49,.35-.16-.11-.28-.2-.4-.28,.04,.03,.08,.06,.11,.09,.45,.39,.89,.8,1.3,1.24,.41,.43,.78,.88,1.16,1.33-1.51-1.78-.13-.13,.2,.39,.52,.81,.96,1.67,1.37,2.54,.73,1.92,1.24,3.91,1.56,5.94,.35,3.25,.28,6.52-.09,9.77Z"/></svg>