<svg width="412" height="412" viewBox="0 0 412 412" fill="none" xmlns="http://www.w3.org/2000/svg">
<circle cx="204.5" cy="207.5" r="204.5" fill="#1E1E1E"/>
<path d="M344.912 179.155C344.619 175.091 343.696 171.026 341.664 167.46C339.633 163.894 336.483 161.032 332.715 159.374C322.45 154.875 311.154 159.591 304.084 167.503C297.686 174.657 294.102 183.859 291.495 192.975C291.234 193.897 290.985 194.829 290.735 195.761C289.681 193.983 288.486 192.282 287.042 190.818C285.836 189.593 284.424 188.531 282.849 187.827C284.196 181.431 285 174.57 282.632 168.349C280.818 163.558 277.158 159.634 272.433 157.607C267.643 155.548 262.267 155.428 257.455 157.477C251.601 159.959 247.712 165.324 245.279 171.015C239.512 184.499 239.229 199.349 240.576 213.732C241.033 218.588 241.576 223.455 242.445 228.257C242.803 230.197 241.695 232.126 239.838 232.798C236.568 233.969 232.973 234.392 229.498 234.392C219.114 234.392 216.399 227.487 216.572 222.588C216.572 218.046 218.756 210.231 223.85 200.964L242.575 166.658C243.65 164.685 242.216 162.268 239.968 162.268C238.893 162.268 237.904 162.842 237.383 163.775L231.018 175.015C230.269 176.337 228.314 176.077 227.901 174.614C224.729 163.33 215.443 158.268 204.56 158.268C192.036 158.268 179.317 164.609 168.782 174.375C168.782 174.213 168.782 174.05 168.782 173.887C168.782 165.53 162.775 158.084 152.392 158.084C139.054 158.084 125.716 169.964 116.69 183.968C115.723 185.475 113.399 184.477 113.812 182.743C114.778 178.678 115.441 175.275 115.441 172.977C115.441 164.436 110.705 158.084 99.9632 158.084C84.6593 158.084 72.2446 171.481 65.1846 187.285C64.7719 188.206 65.2172 189.279 66.1513 189.659C66.9333 189.984 67.8348 189.702 68.3128 189.008C72.3424 183.177 79.6087 180.792 88.4826 180.792C96.4875 180.792 105.231 184.25 105.231 197.864C105.231 218.588 86.7447 245.979 66.0536 250.174C65.4453 250.293 65 250.824 65 251.442C65 252.157 65.5757 252.732 66.2925 252.732H119.601C120.318 252.732 120.893 252.157 120.893 251.442V251.333C120.893 250.759 120.513 250.26 119.959 250.098C109.565 246.889 102.95 237.232 105.785 217.114C105.97 216.03 106.143 214.762 106.328 213.656C112.334 194.222 127.997 181.507 142.377 181.507C147.58 181.507 152.077 183.383 153.782 187.003C154.792 189.171 154.597 191.729 153.413 193.799C147.613 203.966 144.104 215.271 144.104 226.197C144.104 245.816 155.943 256.721 171.964 256.721C186.03 256.721 197.815 246.673 205.016 236.126C205.743 235.053 207.416 235.627 207.318 236.917C206.493 248.483 211.283 256.894 223.296 256.894C230.627 256.894 236.775 253.512 241.815 247.345C243.661 245.09 247.245 245.469 248.56 248.071C248.918 248.775 249.298 249.469 249.7 250.141C252.513 254.856 256.901 258.628 262.603 258.975C269.305 259.376 275.54 254.889 279.374 249.751C279.678 249.339 279.971 248.916 280.243 248.483C284.381 252.775 289.507 255.897 295.84 256.558C307.635 257.783 316.672 247.204 322.711 238.489C325.948 233.817 328.696 228.842 331.303 223.802C334.061 218.48 336.679 213.082 338.916 207.521C342.522 198.633 345.596 188.845 344.901 179.144L344.912 179.155ZM174.18 233.275C159.625 233.275 149.785 227.455 150.328 216.919C151.24 200.573 171.812 181.67 193.839 181.67C210.045 181.67 218.962 189.116 218.593 196.747C217.68 214.74 195.295 233.265 174.169 233.265L174.18 233.275ZM340.698 184.564C340.426 188.705 339.427 192.932 338.156 197.159C335.017 207.619 330.086 217.548 324.796 227.086C322.298 231.595 319.583 236.029 316.357 240.072C313.207 243.995 309.601 247.941 305.159 250.423C300.836 252.84 296.057 252.959 291.463 251.247C287.661 249.827 284.435 247.16 281.839 244.049C281.709 243.681 281.448 243.345 281.079 243.106C280.862 242.825 280.634 242.521 280.427 242.229C280.264 241.99 280.091 241.752 279.938 241.524C273.997 233.037 270.511 222.826 268.979 212.659C268.241 207.792 267.839 202.47 269.75 197.82C271.271 194.135 275.138 190.504 279.428 191.154C279.765 191.198 280.091 191.284 280.406 191.382C284.229 192.531 286.607 196.823 288.334 200.097C290.789 204.768 292.418 209.83 293.211 215.044C293.602 217.58 293.722 220.171 293.657 222.74C293.602 225.439 297.816 225.439 297.871 222.74C298.001 216.919 297.1 211.044 295.221 205.527C294.71 204.042 294.134 202.59 293.504 201.148C293.689 200.931 293.841 200.649 293.928 200.303C295.992 191.989 298.414 183.599 302.878 176.218C307.375 168.782 314.608 162.094 323.765 161.813C327.859 161.683 332.03 163.102 334.93 165.726C337.472 168.023 338.982 170.907 339.861 174.18C340.774 177.551 340.937 180.933 340.687 184.575L340.698 184.564ZM258.889 253.675C257.14 252.742 255.576 251.258 254.457 249.675C251.883 246.066 250.536 242.088 249.222 237.904C249.027 237.275 248.831 236.646 248.657 236.007C247.93 233.481 247.321 230.934 246.811 228.365C246.17 225.113 245.692 221.84 245.323 218.545C243.835 205.343 243.161 191.837 246.93 178.939C248.592 173.259 250.949 167.362 255.609 163.46C257.336 162.008 259.291 161.075 261.441 160.555C263.223 160.122 265.514 160.046 267.22 160.371C271.304 161.108 274.964 163.374 277.201 166.777C280.405 171.655 280.34 178.05 279.385 183.729C279.2 184.792 278.993 185.854 278.776 186.905C276.691 186.862 274.627 187.404 272.77 188.412C267.719 191.143 265.145 196.476 264.439 201.961C263.722 207.586 264.689 213.461 265.905 218.946C267.187 224.756 269.153 230.403 271.76 235.747C273.335 238.988 275.214 242.196 277.429 245.101C275.018 249.415 270.989 253.154 266.166 254.423C263.69 255.073 261.029 254.791 258.932 253.675H258.889Z" fill="#FBFFF2"/>
<path d="M344.912 179.155C344.619 175.091 343.696 171.026 341.664 167.46C339.633 163.894 336.483 161.032 332.715 159.374C322.45 154.875 311.154 159.591 304.084 167.503C297.686 174.657 294.102 183.859 291.495 192.975C291.234 193.897 290.985 194.829 290.735 195.761C289.681 193.983 288.486 192.282 287.042 190.818C285.836 189.593 284.424 188.531 282.849 187.827C284.196 181.431 285 174.57 282.632 168.349C280.818 163.558 277.158 159.634 272.433 157.607C267.643 155.548 262.267 155.428 257.455 157.477C251.601 159.959 247.712 165.324 245.279 171.015C239.512 184.499 239.229 199.349 240.576 213.732C241.033 218.588 241.576 223.455 242.445 228.257C242.803 230.197 241.695 232.126 239.838 232.798C236.568 233.969 232.973 234.392 229.498 234.392C219.114 234.392 216.399 227.487 216.572 222.588C216.572 218.046 218.756 210.231 223.85 200.964L242.575 166.658C243.65 164.685 242.216 162.268 239.968 162.268C238.893 162.268 237.904 162.842 237.383 163.775L231.018 175.015C230.269 176.337 228.314 176.077 227.901 174.614C224.729 163.33 215.443 158.268 204.56 158.268C192.036 158.268 179.317 164.609 168.782 174.375C168.782 174.213 168.782 174.05 168.782 173.887C168.782 165.53 162.775 158.084 152.392 158.084C139.054 158.084 125.716 169.964 116.69 183.968C115.723 185.475 113.399 184.477 113.812 182.743C114.778 178.678 115.441 175.275 115.441 172.977C115.441 164.436 110.705 158.084 99.9632 158.084C84.6593 158.084 72.2446 171.481 65.1846 187.285C64.7719 188.206 65.2172 189.279 66.1513 189.659C66.9333 189.984 67.8348 189.702 68.3128 189.008C72.3424 183.177 79.6087 180.792 88.4826 180.792C96.4875 180.792 105.231 184.25 105.231 197.864C105.231 218.588 86.7447 245.979 66.0536 250.174C65.4453 250.293 65 250.824 65 251.442C65 252.157 65.5757 252.732 66.2925 252.732H119.601C120.318 252.732 120.893 252.157 120.893 251.442V251.333C120.893 250.759 120.513 250.26 119.959 250.098C109.565 246.889 102.95 237.232 105.785 217.114C105.97 216.03 106.143 214.762 106.328 213.656C112.334 194.222 127.997 181.507 142.377 181.507C147.58 181.507 152.077 183.383 153.782 187.003C154.792 189.171 154.597 191.729 153.413 193.799C147.613 203.966 144.104 215.271 144.104 226.197C144.104 245.816 155.943 256.721 171.964 256.721C186.03 256.721 197.815 246.673 205.016 236.126C205.743 235.053 207.416 235.627 207.318 236.917C206.493 248.483 211.283 256.894 223.296 256.894C230.627 256.894 236.775 253.512 241.815 247.345C243.661 245.09 247.245 245.469 248.56 248.071C248.918 248.775 249.298 249.469 249.7 250.141C252.513 254.856 256.901 258.628 262.603 258.975C269.305 259.376 275.54 254.889 279.374 249.751C279.678 249.339 279.971 248.916 280.243 248.483C284.381 252.775 289.507 255.897 295.84 256.558C307.635 257.783 316.672 247.204 322.711 238.489C325.948 233.817 328.696 228.842 331.303 223.802C334.061 218.48 336.679 213.082 338.916 207.521C342.522 198.633 345.596 188.845 344.901 179.144L344.912 179.155ZM174.18 233.275C159.625 233.275 149.785 227.455 150.328 216.919C151.24 200.573 171.812 181.67 193.839 181.67C210.045 181.67 218.962 189.116 218.593 196.747C217.68 214.74 195.295 233.265 174.169 233.265L174.18 233.275ZM340.698 184.564C340.426 188.705 339.427 192.932 338.156 197.159C335.017 207.619 330.086 217.548 324.796 227.086C322.298 231.595 319.583 236.029 316.357 240.072C313.207 243.995 309.601 247.941 305.159 250.423C300.836 252.84 296.057 252.959 291.463 251.247C287.661 249.827 284.435 247.16 281.839 244.049C281.709 243.681 281.448 243.345 281.079 243.106C280.862 242.825 280.634 242.521 280.427 242.229C280.264 241.99 280.091 241.752 279.938 241.524C273.997 233.037 270.511 222.826 268.979 212.659C268.241 207.792 267.839 202.47 269.75 197.82C271.271 194.135 275.138 190.504 279.428 191.154C279.765 191.198 280.091 191.284 280.406 191.382C284.229 192.531 286.607 196.823 288.334 200.097C290.789 204.768 292.418 209.83 293.211 215.044C293.602 217.58 293.722 220.171 293.657 222.74C293.602 225.439 297.816 225.439 297.871 222.74C298.001 216.919 297.1 211.044 295.221 205.527C294.71 204.042 294.134 202.59 293.504 201.148C293.689 200.931 293.841 200.649 293.928 200.303C295.992 191.989 298.414 183.599 302.878 176.218C307.375 168.782 314.608 162.094 323.765 161.813C327.859 161.683 332.03 163.102 334.93 165.726C337.472 168.023 338.982 170.907 339.861 174.18C340.774 177.551 340.937 180.933 340.687 184.575L340.698 184.564ZM258.889 253.675C257.14 252.742 255.576 251.258 254.457 249.675C251.883 246.066 250.536 242.088 249.222 237.904C249.027 237.275 248.831 236.646 248.657 236.007C247.93 233.481 247.321 230.934 246.811 228.365C246.17 225.113 245.692 221.84 245.323 218.545C243.835 205.343 243.161 191.837 246.93 178.939C248.592 173.259 250.949 167.362 255.609 163.46C257.336 162.008 259.291 161.075 261.441 160.555C263.223 160.122 265.514 160.046 267.22 160.371C271.304 161.108 274.964 163.374 277.201 166.777C280.405 171.655 280.34 178.05 279.385 183.729C279.2 184.792 278.993 185.854 278.776 186.905C276.691 186.862 274.627 187.404 272.77 188.412C267.719 191.143 265.145 196.476 264.439 201.961C263.722 207.586 264.689 213.461 265.905 218.946C267.187 224.756 269.153 230.403 271.76 235.747C273.335 238.988 275.214 242.196 277.429 245.101C275.018 249.415 270.989 253.154 266.166 254.423C263.69 255.073 261.029 254.791 258.932 253.675H258.889Z" fill="white"/>
</svg>
