<?xml version="1.0" encoding="UTF-8"?><svg id="Layer_1" xmlns="http://www.w3.org/2000/svg" viewBox="0 0 379.24 159.5"><defs><style>.cls-1{fill:#fff;}</style></defs><path class="cls-1" d="M258.86,23.23s-.08,.01-.16,.03c.09-.01,.14-.02,.16-.03Z"/><path class="cls-1" d="M368.63,43.78c-.4-5.57-1.65-11.12-4.43-16.01-2.75-4.85-7.06-8.84-12.17-11.1-13.95-6.14-29.35-.22-39.07,10.67-8.06,9.03-12.76,20.47-16.13,31.98-.67-.84-1.38-1.65-2.13-2.41-1.27-1.29-2.74-2.47-4.34-3.4,1.54-7.96,2.25-16.41-.65-24.07-2.5-6.63-7.42-12.18-13.98-15.02-6.76-2.94-14.2-3.17-21.03-.29-7.88,3.32-13.23,10.45-16.52,18.12-7.5,17.5-8.03,36.68-6.28,55.37,.69,7.31,1.52,14.66,3.01,21.88-3.63,1.71-8.4,2.82-14.69,2.82-5.07,0-8.94-1.35-11.52-4.03-3.21-3.33-3.41-7.68-3.35-9.45,0-4.95,2.38-14.57,9.04-26.71l23.7-43.53c1.91-3.51-.63-7.78-4.62-7.78h0c-1.9,0-3.65,1.02-4.58,2.67l-8.86,15.68c-3.48-14.75-14.94-23.42-31.39-23.42-15.2,0-30.76,7.24-43.93,18.67-1.3-12.42-11.76-18.9-22.1-18.9s-21.08,5.25-31.49,15.17c-6.18,5.89-11.88,13.12-16.64,21.03,1.65-6.61,2.84-12.17,2.84-15.8,0-12.77-7.88-20.4-21.09-20.4-17.6,0-34.12,13.54-44.72,36.44-.92,2-.02,4.37,1.99,5.27h0c1.67,.74,3.6,.22,4.74-1.21,4.62-5.76,12.5-8.68,23.47-8.68,8.99,0,19.71,3.5,19.71,20.17,0,12.65-5.67,27.9-15.15,40.79-9.23,12.55-21.86,21.1-33.24,23.82-1.49,.36-2.55,1.67-2.55,3.2h0c0,1.82,1.47,3.29,3.29,3.29H79.69c1.9,0,3.43-1.54,3.43-3.43h0c0-1.46-.94-2.74-2.32-3.23-13.47-4.78-18.75-18.15-15.71-39.75,.11-.71,.23-1.48,.35-2.25,.11-.69,.21-1.39,.32-2.04,7.13-22.97,25.69-39.64,44.17-39.64,5.89,0,10.62,2,12.67,5.34,.26,.42,.48,.87,.65,1.33,.83,2.19,.44,4.64-.72,6.68-7.41,13.03-11.91,27.58-11.91,41.85,0,24.43,14.43,40.22,36.77,40.22,16.73,0,30.92-10.89,40.32-23.01,.91-1.18,2.8-.57,2.85,.92,.22,6.26,1.89,11.49,4.94,15.26,3.79,4.69,9.47,7.06,16.87,7.06,10.98,0,20.22-5.61,27.64-16.75,1.06,2.73,2.29,5.39,3.77,7.87,4,6.73,10.28,11.87,18.34,12.36,8.98,.54,17.23-5.21,22.58-12.01,5.44,4.94,12.12,8.17,19.49,8.94,15.79,1.65,27.93-12.37,36.02-24.07,4.1-5.92,7.58-12.24,10.88-18.63,3.58-6.93,6.95-13.97,9.88-21.21,4.62-11.45,8.55-24.11,7.65-36.62Zm-10,6.87c-.08,1.12-.21,2.22-.33,3.34h0c-.03,.18-.06,.36-.08,.53-.1,.6-.2,1.2-.32,1.8-.62,3.27-1.46,6.5-2.41,9.68-1.02,3.39-2.19,6.73-3.47,10.02-.28,.72-.57,1.44-.86,2.15-.18,.43-.35,.86-.53,1.29-.01,.01-.01,.03-.01,.04,0,0,0,.01-.01,.02t-.01,.02h-.01s0,.03,0,.04c0,.01-.01,.02-.01,.02-.02,.04-.04,.08-.06,.14-.01,.02-.02,.04-.02,.06-.01,.02-.02,.04-.03,.05,0,.01-.01,.02-.01,.03,0,.02,0,.03-.01,.03l-.03,.06c-.74,1.7-1.49,3.4-2.27,5.08-2.88,6.23-6,12.36-9.32,18.36-1.61,2.9-3.28,5.76-5.07,8.55-.86,1.33-1.74,2.65-2.66,3.95-.5,.71-1.01,1.41-1.52,2.1-.18,.24-.35,.47-.53,.7-.01,.01-.01,.02-.01,.02-.02,.03-.05,.06-.07,.09-.02,.02-.03,.04-.04,.05-.06,.08-.1,.13-.12,.16l-.02,.02c-.1,.12-.19,.24-.29,.36-2.09,2.62-4.33,5.12-6.74,7.44-1.03,.98-2.09,1.92-3.19,2.82-.03,.02-.06,.05-.11,.09-.03,.03-.08,.06-.12,.1-.01,0-.03,.02-.04,.03-.14,.11-.28,.21-.32,.24-.34,.25-.69,.49-1.03,.72-.7,.47-1.42,.92-2.16,1.33-.6,.34-1.22,.65-1.85,.94-.02,.01-.05,.02-.08,.03h-.01s-.04,.03-.06,.03c-.03,.02-.06,.03-.09,.04-.14,.06-.28,.12-.37,.15-.32,.12-.65,.23-.98,.34-.8,.24-1.6,.4-2.41,.58-.07,.01-.12,.03-.17,.04-.01,0-.02,0-.02,.01h-.09c-.41,.02-.81,.06-1.22,.08-.81,.03-1.62,.02-2.43-.04-.28-.01-.59-.03-.88-.07-.01,0-.02,0-.03,0-.05-.01-.1-.02-.17-.03-1.6-.32-3.16-.71-4.69-1.29-.1-.03-.58-.25-.72-.3,0,0-.01,0-.01,0-.23-.09-.46-.2-.68-.31-.61-.3-1.2-.62-1.78-.96-.7-.41-1.38-.84-2.04-1.3-.22-.16-.44-.31-.65-.47-.01-.01-.02-.01-.02-.02-.02-.01-.04-.03-.06-.05-.16-.12-.47-.38-.57-.46-1.22-1.02-2.36-2.14-3.44-3.31-.27-.3-.54-.59-.8-.9,0,0-.01-.01-.01-.02-.3-.7-.78-1.31-1.45-1.78-.12-.15-.23-.31-.34-.46-.92-1.27-1.78-2.59-2.6-3.93-.92-1.49-1.78-3.03-2.59-4.58-.77-1.46-1.5-2.95-2.18-4.45-.26-.56-.51-1.13-.76-1.7v-.02s-.02-.05-.04-.08c-.08-.22-.26-.66-.29-.72-.22-.55-.44-1.11-.65-1.66-2.43-6.4-4.13-13.06-5.15-19.83-.04-.3-.08-.62-.14-.93,0-.05-.01-.1-.02-.15v-.02s-.01-.07-.01-.1c-.01-.03-.01-.05-.01-.07v-.03c-.09-.86-.2-1.72-.27-2.58-.15-1.73-.23-3.46-.2-5.2,.02-.72,.05-1.44,.11-2.15,.02-.26,.04-.52,.08-.79,0,0,.01-.1,.03-.24-.01-.01,0-.03,0-.04,.04-.22,.08-.51,.09-.59,.13-.7,.28-1.39,.47-2.08,.11-.42,.23-.83,.36-1.24,.04-.13,.37-1,.41-1.15,.22-.5,.47-1,.74-1.48,.18-.32,.37-.63,.57-.93,.06-.08,.21-.31,.31-.47,.01-.03,.03-.06,.06-.09,.33-.41,.72-.8,1.08-1.16,.23-.22,.45-.44,.69-.65,.1-.09,.21-.19,.32-.28l.12-.09h.01c.57-.39,1.14-.77,1.75-1.09,.18-.09,.37-.21,.56-.3,.17-.04,.38-.09,.46-.12,.35-.12,.71-.21,1.06-.29,.12-.03,.24-.05,.36-.08-.07,.01-.14,.02-.23,.03,.25-.2,1.33-.14,1.92-.04,.02,0,.03,0,.04,.01,.16,.06,.35,.13,.44,.15,.14,.04,.45,.09,.71,.16t.02,.01h0c.05,.04,.11,.07,.17,.1,.05,.02,.09,.05,.14,.07,.28,.15,.57,.29,.84,.45,.32,.19,.62,.41,.93,.61,.01,.01,.02,.01,.03,.02,.04,.04,.08,.08,.13,.12,.55,.51,1.1,1.01,1.6,1.57,.26,.28,.49,.57,.74,.85,.01,.02,.03,.03,.04,.04,.01,.02,.02,.03,.03,.04,.02,.03,.04,.06,.07,.1,.36,.51,.72,1.01,1.06,1.54,.93,1.42,1.78,2.91,2.57,4.42,.7,1.33,1.35,2.68,1.94,4.05,0,0,.01,0,.01,.01,.01,.01,.02,.04,.03,.08,.02,.02,.02,.04,.03,.06t.01,.02c.09,.23,.23,.57,.26,.62,.16,.41,.32,.83,.47,1.24,.31,.83,.6,1.66,.87,2.5,1.05,3.21,1.79,6.49,2.33,9.82,.01,.09,.03,.16,.04,.22s.02,.11,.02,.15v.04c.05,.43,.1,.87,.15,1.3,.07,.73,.13,1.46,.17,2.18,.12,1.75,.14,3.5,.11,5.25-.06,2.62,2.34,5.12,5,5,2.75-.12,4.94-2.2,5-5,.16-7.58-1-15.28-3.45-22.45-.55-1.6-1.15-3.23-1.82-4.85,.08-.17,.13-.35,.18-.54,1.31-5.28,2.74-10.55,4.53-15.69,.44-1.26,.9-2.5,1.38-3.74,.22-.57,.45-1.12,.67-1.68h0l.03-.1,.03-.06h0s.04-.08,.05-.12c.18-.4,.36-.81,.54-1.21,1.15-2.53,2.42-5.02,3.86-7.4,.68-1.13,1.4-2.24,2.16-3.32,.35-.49,.7-.97,1.05-1.45,0,0,0-.01,0-.01,.01-.01,.01-.02,.02-.02,.02-.03,.05-.06,.08-.1h0c.31-.37,.6-.74,.91-1.1,.85-1,1.74-1.96,2.67-2.88,.92-.9,1.97-2.08,3.09-2.77,.03-.02,.07-.04,.1-.06,.06-.04,.12-.08,.16-.11,.2-.14,.39-.28,.59-.42,.63-.44,1.27-.86,1.93-1.26,.63-.38,1.27-.73,1.92-1.06,.3-.16,.6-.3,.9-.45,.16-.07,.31-.14,.47-.21,.05-.02,.12-.05,.19-.08,1.41-.51,2.81-.98,4.27-1.32,.4-.09,.8-.17,1.2-.24,.06-.01,.24-.05,.41-.09,.06-.01,.12-.02,.19-.03,.69-.1,1.42-.11,2.1-.14,.82-.02,1.63-.01,2.44,.05,.27,.01,.54,.04,.81,.06,.04,0,.08,.01,.11,.01,.01,.01,.02,.01,.03,0,.04,.02,.08,.03,.13,.04,.8,.17,1.6,.32,2.39,.55,.52,.16,1.78,.34,2.13,.74-.19-.08-.38-.16-.58-.24,.21,.09,.41,.18,.61,.27,.3,.14,.59,.28,.88,.43,.47,.25,.93,.51,1.39,.79,.46,.28,.91,.6,1.36,.9l.03,.03c.24,.24,.52,.43,.77,.65,.77,.7,1.45,1.46,2.14,2.25,0,.01,.02,.03,.03,.04,.16,.23,.32,.44,.47,.67,.32,.48,.62,.97,.91,1.48,.28,.5,.55,1.01,.8,1.53,.08,.17,.15,.34,.23,.5,.4,1.07,.77,2.13,1.06,3.23,.28,1.05,.51,2.11,.69,3.18,.02,.13,.04,.28,.06,.42-.04-.14-.08-.27-.1-.31,0,.04,.04,.23,.16,.69,.06,.58,.12,1.14,.16,1.72,.17,2.28,.15,4.58,0,6.87Zm-81.72,78.6l-.02,.02h0s-.06,.07-.09,.11c-.3,.35-.59,.71-.89,1.05-.61,.68-1.26,1.34-1.93,1.96-.34,.32-.69,.62-1.04,.92-.08,.07-.18,.14-.27,.22-.06,.04-.12,.09-.17,.12-.01,.01-.03,.02-.04,.03l-.03,.03s-.02,.02-.03,.02c-.01,.01-.02,.01-.02,.01-.7,.5-1.4,.99-2.14,1.42-.74,.44-1.5,.83-2.28,1.2-.07,.03-.12,.06-.16,.08-.05,.01-.13,.04-.23,.07-.55,.18-1.09,.36-1.65,.51-.46,.13-.95,.2-1.42,.31-.15,.01-.29,.02-.44,.03-.5,.04-1,.05-1.51,.03-.21,0-.43-.04-.64-.03-.03,0-.05,0-.07,0-.03,0-.06,0-.09-.02-.72-.15-1.43-.32-2.12-.56-.05-.02-.1-.04-.15-.05h0l-.03-.04c-.14-.14-.36-.21-.45-.21h-.01c-.17-.08-.34-.14-.43-.18-.59-.32-1.13-.68-1.68-1.04-.01-.01-.03-.02-.04-.03,0,0-.03-.01-.04-.02-.31-.27-.6-.52-.9-.8-.48-.45-.94-.93-1.37-1.43-.13-.15-.26-.31-.39-.47-.06-.13-.3-.37-.36-.46-.85-1.19-1.6-2.45-2.28-3.74-.32-.6-.62-1.22-.91-1.84-.15-.33-.31-.67-.45-1-.02-.04-.04-.08-.05-.11,0,0,0-.02,0-.02-.92-2.54-1.87-5.07-2.69-7.65-.3-.94-.58-1.89-.85-2.84-.23-.79-.45-1.58-.65-2.38-.23-.82-.43-1.65-.63-2.49-.33-1.36-.62-2.72-.9-4.1,0-.02-.01-.05-.01-.07-.13-.65-.25-1.3-.37-1.95-.13-.74-.26-1.49-.38-2.24-.13-.79-.25-1.58-.37-2.37-.06-.41-.12-.83-.18-1.24,0-.02,0-.04,0-.06,0-.03,0-.05-.01-.08v-.03s0-.02-.01-.03v-.05s-.01-.07-.02-.11c-.02-.2-.05-.4-.08-.6-.14-1.1-.27-2.2-.39-3.3-.96-8.47-1.68-16.99-1.51-25.52,.04-2.14,.14-4.29,.3-6.43,.07-.99,.16-1.98,.26-2.98,.06-.53,.12-1.06,.18-1.59,.03-.23,.06-.46,.09-.69v-.07c.63-4.17,1.45-8.29,2.63-12.35,.61-2.06,1.29-4.1,2.06-6.11,.15-.39,.31-.77,.46-1.15,.02-.04,.03-.08,.04-.11,.02-.03,.03-.06,.04-.09h0c.03-.05,.04-.09,.05-.13,.01-.01,.01-.02,.02-.03,.01-.02,.02-.04,.02-.06,.02-.03,.04-.07,.05-.1,.4-.88,.82-1.75,1.27-2.61,.45-.86,.93-1.7,1.44-2.52,.22-.35,.45-.7,.68-1.05,.12-.17,.24-.34,.36-.51,0,0,.35-.47,.44-.61,.02-.02,.03-.04,.03-.04,.18-.21,.36-.43,.54-.64,.28-.31,.56-.62,.85-.93,.64-.68,1.32-1.32,2.04-1.92,.03-.03,.07-.06,.11-.1,.01-.01,.02-.02,.03-.02,.01-.02,.03-.03,.05-.04,.32-.22,.63-.45,.96-.67,.64-.41,1.3-.79,1.98-1.13,.14-.08,.28-.14,.43-.21,.08-.05,.18-.07,.26-.09-.03,0-.07,0-.12,.01,.14-.06,.28-.1,.41-.16,.73-.27,1.48-.5,2.24-.68,.29-.07,.6-.14,.9-.2,.11-.02,.52-.09,.73-.12,.03,0,.07-.01,.1-.01,.05,0,.08-.01,.11-.01,.4-.03,.8-.05,1.21-.06,.65-.02,1.31,0,1.96,.04,.2,.01,.4,.04,.59,.06h.01c.15,.03,.32,.04,.46,.06,1.36,.25,2.67,.65,3.97,1.12,.01,0,.03,.01,.06,.02,.01,.01,.03,.02,.05,.03,.27,.13,.54,.25,.8,.39,.67,.34,1.32,.72,1.95,1.13,.25,.16,.5,.33,.75,.51,.02,.01,.04,.03,.06,.04l.02,.02c.51,.46,1.06,.9,1.56,1.39,.46,.46,.91,.95,1.33,1.45,.06,.07,.16,.22,.24,.33l.02,.02c.14,.21,.29,.41,.42,.61,.4,.6,.76,1.23,1.09,1.88,.1,.19,.19,.38,.28,.57-.02,.16,.18,.49,.22,.51t.01,.01s.01,.02,.01,.03c.32,.88,.59,1.78,.82,2.7,.13,.51,.24,1.02,.34,1.54,.05,.21,.15,1.09,.19,1.22h0c.17,1.93,.24,3.83,.16,5.76-.05,.99-.13,1.98-.23,2.96-.03,.3-.07,.6-.11,.91v.03s0,.02,0,.04h0v.02s0,.03-.01,.05v.02s-.01,.06-.01,.08c0,.03-.01,.06-.01,.08v.02s-.01,.04-.01,.05h0s-.02,.09-.02,.1c-.06,.37-.11,.75-.18,1.13-.14,.81-.28,1.62-.44,2.43-2.39,.22-4.71,.95-6.87,2.12-7.16,3.87-10.73,11.44-11.7,19.21-.92,7.33,.36,15.01,1.93,22.17,1.66,7.56,4.25,14.9,7.64,21.86,1.83,3.75,3.91,7.47,6.36,10.91-.32,.51-.65,1.01-1,1.5-.02,.03-.05,.06-.06,.09ZM121.46,91.78c1.08-19.49,26.02-43.3,53.58-43.3,11.43,0,20.94,3.1,26.1,8.51,2.6,2.73,3.9,5.86,3.75,9.05-1.13,22.24-28.75,44.9-54.74,44.9-11.14,0-19.89-2.76-24.65-7.77-2.92-3.07-4.28-6.9-4.04-11.39Z"/></svg>