<svg width="181" height="70" viewBox="0 0 181 70" fill="none" xmlns="http://www.w3.org/2000/svg">
<mask id="path-1-outside-1_323_287" maskUnits="userSpaceOnUse" x="0" y="0" width="181" height="70" fill="black">
<rect fill="white" width="181" height="70"/>
<path d="M179.167 16.8374C178.981 14.2328 178.397 11.6282 177.111 9.34314C175.825 7.05807 173.832 5.22449 171.446 4.16183C164.95 1.27945 157.8 4.30074 153.325 9.37095C149.276 13.955 147.007 19.8517 145.357 25.6929C145.192 26.2832 145.034 26.8806 144.876 27.4779C144.209 26.3388 143.453 25.2484 142.538 24.3107C141.775 23.5259 140.882 22.8452 139.885 22.3938C140.737 18.2959 141.246 13.8994 139.747 9.91272C138.599 6.84281 136.282 4.32852 133.292 3.02971C130.26 1.71006 126.857 1.63367 123.812 2.94637C120.106 4.53688 117.645 7.9749 116.105 11.6213C112.455 20.2615 112.276 29.7768 113.129 38.9935C113.417 42.1051 113.761 45.2236 114.311 48.3005C114.538 49.5437 113.837 50.78 112.661 51.2106C110.592 51.9607 108.316 52.2316 106.117 52.2316C99.5444 52.2316 97.8257 47.8074 97.9357 44.668C97.9357 41.7578 99.3175 36.7501 102.542 30.8117L114.394 8.82918C115.074 7.5651 114.167 6.01631 112.744 6.01631C112.063 6.01631 111.438 6.38443 111.108 6.98174L107.079 14.1842C106.605 15.0316 105.367 14.8649 105.106 13.9272C103.099 6.69697 97.2207 3.45337 90.3323 3.45337C82.4059 3.45337 74.3557 7.51648 67.6873 13.7744C67.6873 13.6702 67.6873 13.566 67.6873 13.4619C67.6873 8.10688 63.8856 3.33535 57.3134 3.33535C48.8713 3.33535 40.4293 10.9476 34.7164 19.9212C34.1046 20.8866 32.6334 20.2476 32.8947 19.1364C33.5065 16.5318 33.9259 14.3509 33.9259 12.8785C33.9259 7.40541 30.9285 3.33535 24.1295 3.33535C14.4431 3.33535 6.58539 11.9199 2.11687 22.0465C1.85563 22.6368 2.13749 23.3245 2.72871 23.5676C3.22369 23.776 3.79428 23.5953 4.09676 23.1508C6.64726 19.4141 11.2464 17.8861 16.863 17.8861C21.9296 17.8861 27.4637 20.1017 27.4637 28.8253C27.4637 42.1051 15.763 59.6563 2.66684 62.3443C2.28186 62.4207 2 62.761 2 63.1569C2 63.6153 2.36435 63.9834 2.81808 63.9834H36.5588C37.0126 63.9834 37.3769 63.6153 37.3769 63.1569V63.0874C37.3769 62.7193 37.1363 62.3999 36.7857 62.2957C30.2067 60.2398 26.02 54.0513 27.8143 41.1605C27.9312 40.4659 28.0412 39.6534 28.158 38.9449C31.9597 26.4916 41.873 18.3446 50.975 18.3446C54.2679 18.3446 57.114 19.5461 58.1934 21.8659C58.8327 23.255 58.709 24.8941 57.9596 26.2207C54.2886 32.7356 52.0681 39.9798 52.0681 46.9808C52.0681 59.5522 59.5614 66.5394 69.7015 66.5394C78.6042 66.5394 86.0632 60.1009 90.6211 53.3429C91.0817 52.6553 92.1404 53.0234 92.0785 53.8499C91.556 61.2608 94.5877 66.6504 102.191 66.6504C106.831 66.6504 110.723 64.4835 113.912 60.5315C115.081 59.0868 117.35 59.33 118.182 60.9969C118.408 61.4483 118.649 61.8928 118.903 62.3234C120.684 65.3447 123.461 67.7617 127.07 67.984C131.312 68.241 135.258 65.3655 137.685 62.0734C137.877 61.8094 138.063 61.5385 138.235 61.2607C140.854 64.0111 144.099 66.0115 148.107 66.4352C155.573 67.22 161.292 60.4412 165.115 54.857C167.163 51.8635 168.903 48.6756 170.553 45.4459C172.299 42.0357 173.956 38.5768 175.372 35.0137C177.654 29.3184 179.6 23.0466 179.16 16.8304L179.167 16.8374ZM71.104 51.5163C61.8919 51.5163 55.6635 47.7865 56.0072 41.0354C56.5847 30.5616 69.6053 18.4488 83.5471 18.4488C93.804 18.4488 99.4481 23.2203 99.2144 28.1099C98.6369 39.6394 84.4683 51.5093 71.0971 51.5093L71.104 51.5163ZM176.499 20.3032C176.327 22.9563 175.695 25.6651 174.891 28.3738C172.904 35.0762 169.783 41.4383 166.435 47.5503C164.854 50.4396 163.135 53.2804 161.093 55.8711C159.099 58.3854 156.817 60.9135 154.005 62.504C151.269 64.0528 148.244 64.1292 145.336 63.0319C142.93 62.122 140.889 60.4134 139.245 58.42C139.163 58.1839 138.998 57.9686 138.764 57.8158C138.627 57.6352 138.482 57.4408 138.352 57.2532C138.249 57.1004 138.139 56.9476 138.042 56.8018C134.282 51.3634 132.075 44.8208 131.106 38.3059C130.638 35.1874 130.384 31.7771 131.594 28.7975C132.556 26.436 135.004 24.1093 137.719 24.5261C137.932 24.5538 138.139 24.6094 138.338 24.6719C140.758 25.4081 142.263 28.1586 143.356 30.2561C144.91 33.2496 145.941 36.4931 146.443 39.8339C146.691 41.4591 146.766 43.1191 146.725 44.7652C146.691 46.4946 149.358 46.4946 149.392 44.7652C149.475 41.0354 148.904 37.2711 147.715 33.7358C147.392 32.7843 147.028 31.8535 146.629 30.9298C146.746 30.7909 146.842 30.6103 146.897 30.388C148.203 25.0608 149.736 19.685 152.562 14.9552C155.408 10.1905 159.986 5.90515 165.782 5.72456C168.373 5.64122 171.013 6.55107 172.849 8.23188C174.457 9.70432 175.413 11.5519 175.97 13.6494C176.547 15.8094 176.65 17.9764 176.492 20.3101L176.499 20.3032ZM124.719 64.5876C123.613 63.9903 122.623 63.0388 121.914 62.0248C120.285 59.7119 119.433 57.163 118.601 54.482C118.477 54.0792 118.353 53.6763 118.243 53.2665C117.783 51.6482 117.398 50.016 117.075 48.3699C116.669 46.2863 116.367 44.1887 116.133 42.0773C115.191 33.6177 114.765 24.9636 117.15 16.6985C118.202 13.059 119.694 9.28067 122.643 6.78029C123.736 5.8496 124.974 5.25225 126.335 4.91886C127.462 4.64104 128.913 4.59248 129.992 4.80084C132.577 5.27314 134.894 6.72477 136.31 8.90566C138.338 12.0311 138.297 16.1289 137.692 19.7683C137.575 20.449 137.444 21.1297 137.307 21.8034C135.987 21.7756 134.681 22.1229 133.505 22.7688C130.308 24.5191 128.679 27.9363 128.232 31.4507C127.779 35.0554 128.39 38.8198 129.16 42.3342C129.972 46.057 131.216 49.6756 132.866 53.0998C133.863 55.1765 135.052 57.2323 136.454 59.0937C134.928 61.858 132.378 64.2543 129.325 65.0669C127.758 65.4836 126.074 65.303 124.747 64.5876H124.719Z"/>
</mask>
<path d="M179.167 16.8374C178.981 14.2328 178.397 11.6282 177.111 9.34314C175.825 7.05807 173.832 5.22449 171.446 4.16183C164.95 1.27945 157.8 4.30074 153.325 9.37095C149.276 13.955 147.007 19.8517 145.357 25.6929C145.192 26.2832 145.034 26.8806 144.876 27.4779C144.209 26.3388 143.453 25.2484 142.538 24.3107C141.775 23.5259 140.882 22.8452 139.885 22.3938C140.737 18.2959 141.246 13.8994 139.747 9.91272C138.599 6.84281 136.282 4.32852 133.292 3.02971C130.26 1.71006 126.857 1.63367 123.812 2.94637C120.106 4.53688 117.645 7.9749 116.105 11.6213C112.455 20.2615 112.276 29.7768 113.129 38.9935C113.417 42.1051 113.761 45.2236 114.311 48.3005C114.538 49.5437 113.837 50.78 112.661 51.2106C110.592 51.9607 108.316 52.2316 106.117 52.2316C99.5444 52.2316 97.8257 47.8074 97.9357 44.668C97.9357 41.7578 99.3175 36.7501 102.542 30.8117L114.394 8.82918C115.074 7.5651 114.167 6.01631 112.744 6.01631C112.063 6.01631 111.438 6.38443 111.108 6.98174L107.079 14.1842C106.605 15.0316 105.367 14.8649 105.106 13.9272C103.099 6.69697 97.2207 3.45337 90.3323 3.45337C82.4059 3.45337 74.3557 7.51648 67.6873 13.7744C67.6873 13.6702 67.6873 13.566 67.6873 13.4619C67.6873 8.10688 63.8856 3.33535 57.3134 3.33535C48.8713 3.33535 40.4293 10.9476 34.7164 19.9212C34.1046 20.8866 32.6334 20.2476 32.8947 19.1364C33.5065 16.5318 33.9259 14.3509 33.9259 12.8785C33.9259 7.40541 30.9285 3.33535 24.1295 3.33535C14.4431 3.33535 6.58539 11.9199 2.11687 22.0465C1.85563 22.6368 2.13749 23.3245 2.72871 23.5676C3.22369 23.776 3.79428 23.5953 4.09676 23.1508C6.64726 19.4141 11.2464 17.8861 16.863 17.8861C21.9296 17.8861 27.4637 20.1017 27.4637 28.8253C27.4637 42.1051 15.763 59.6563 2.66684 62.3443C2.28186 62.4207 2 62.761 2 63.1569C2 63.6153 2.36435 63.9834 2.81808 63.9834H36.5588C37.0126 63.9834 37.3769 63.6153 37.3769 63.1569V63.0874C37.3769 62.7193 37.1363 62.3999 36.7857 62.2957C30.2067 60.2398 26.02 54.0513 27.8143 41.1605C27.9312 40.4659 28.0412 39.6534 28.158 38.9449C31.9597 26.4916 41.873 18.3446 50.975 18.3446C54.2679 18.3446 57.114 19.5461 58.1934 21.8659C58.8327 23.255 58.709 24.8941 57.9596 26.2207C54.2886 32.7356 52.0681 39.9798 52.0681 46.9808C52.0681 59.5522 59.5614 66.5394 69.7015 66.5394C78.6042 66.5394 86.0632 60.1009 90.6211 53.3429C91.0817 52.6553 92.1404 53.0234 92.0785 53.8499C91.556 61.2608 94.5877 66.6504 102.191 66.6504C106.831 66.6504 110.723 64.4835 113.912 60.5315C115.081 59.0868 117.35 59.33 118.182 60.9969C118.408 61.4483 118.649 61.8928 118.903 62.3234C120.684 65.3447 123.461 67.7617 127.07 67.984C131.312 68.241 135.258 65.3655 137.685 62.0734C137.877 61.8094 138.063 61.5385 138.235 61.2607C140.854 64.0111 144.099 66.0115 148.107 66.4352C155.573 67.22 161.292 60.4412 165.115 54.857C167.163 51.8635 168.903 48.6756 170.553 45.4459C172.299 42.0357 173.956 38.5768 175.372 35.0137C177.654 29.3184 179.6 23.0466 179.16 16.8304L179.167 16.8374ZM71.104 51.5163C61.8919 51.5163 55.6635 47.7865 56.0072 41.0354C56.5847 30.5616 69.6053 18.4488 83.5471 18.4488C93.804 18.4488 99.4481 23.2203 99.2144 28.1099C98.6369 39.6394 84.4683 51.5093 71.0971 51.5093L71.104 51.5163ZM176.499 20.3032C176.327 22.9563 175.695 25.6651 174.891 28.3738C172.904 35.0762 169.783 41.4383 166.435 47.5503C164.854 50.4396 163.135 53.2804 161.093 55.8711C159.099 58.3854 156.817 60.9135 154.005 62.504C151.269 64.0528 148.244 64.1292 145.336 63.0319C142.93 62.122 140.889 60.4134 139.245 58.42C139.163 58.1839 138.998 57.9686 138.764 57.8158C138.627 57.6352 138.482 57.4408 138.352 57.2532C138.249 57.1004 138.139 56.9476 138.042 56.8018C134.282 51.3634 132.075 44.8208 131.106 38.3059C130.638 35.1874 130.384 31.7771 131.594 28.7975C132.556 26.436 135.004 24.1093 137.719 24.5261C137.932 24.5538 138.139 24.6094 138.338 24.6719C140.758 25.4081 142.263 28.1586 143.356 30.2561C144.91 33.2496 145.941 36.4931 146.443 39.8339C146.691 41.4591 146.766 43.1191 146.725 44.7652C146.691 46.4946 149.358 46.4946 149.392 44.7652C149.475 41.0354 148.904 37.2711 147.715 33.7358C147.392 32.7843 147.028 31.8535 146.629 30.9298C146.746 30.7909 146.842 30.6103 146.897 30.388C148.203 25.0608 149.736 19.685 152.562 14.9552C155.408 10.1905 159.986 5.90515 165.782 5.72456C168.373 5.64122 171.013 6.55107 172.849 8.23188C174.457 9.70432 175.413 11.5519 175.97 13.6494C176.547 15.8094 176.65 17.9764 176.492 20.3101L176.499 20.3032ZM124.719 64.5876C123.613 63.9903 122.623 63.0388 121.914 62.0248C120.285 59.7119 119.433 57.163 118.601 54.482C118.477 54.0792 118.353 53.6763 118.243 53.2665C117.783 51.6482 117.398 50.016 117.075 48.3699C116.669 46.2863 116.367 44.1887 116.133 42.0773C115.191 33.6177 114.765 24.9636 117.15 16.6985C118.202 13.059 119.694 9.28067 122.643 6.78029C123.736 5.8496 124.974 5.25225 126.335 4.91886C127.462 4.64104 128.913 4.59248 129.992 4.80084C132.577 5.27314 134.894 6.72477 136.31 8.90566C138.338 12.0311 138.297 16.1289 137.692 19.7683C137.575 20.449 137.444 21.1297 137.307 21.8034C135.987 21.7756 134.681 22.1229 133.505 22.7688C130.308 24.5191 128.679 27.9363 128.232 31.4507C127.779 35.0554 128.39 38.8198 129.16 42.3342C129.972 46.057 131.216 49.6756 132.866 53.0998C133.863 55.1765 135.052 57.2323 136.454 59.0937C134.928 61.858 132.378 64.2543 129.325 65.0669C127.758 65.4836 126.074 65.303 124.747 64.5876H124.719Z" fill="white"/>
<path d="M179.167 16.8374C178.981 14.2328 178.397 11.6282 177.111 9.34314C175.825 7.05807 173.832 5.22449 171.446 4.16183C164.95 1.27945 157.8 4.30074 153.325 9.37095C149.276 13.955 147.007 19.8517 145.357 25.6929C145.192 26.2832 145.034 26.8806 144.876 27.4779C144.209 26.3388 143.453 25.2484 142.538 24.3107C141.775 23.5259 140.882 22.8452 139.885 22.3938C140.737 18.2959 141.246 13.8994 139.747 9.91272C138.599 6.84281 136.282 4.32852 133.292 3.02971C130.26 1.71006 126.857 1.63367 123.812 2.94637C120.106 4.53688 117.645 7.9749 116.105 11.6213C112.455 20.2615 112.276 29.7768 113.129 38.9935C113.417 42.1051 113.761 45.2236 114.311 48.3005C114.538 49.5437 113.837 50.78 112.661 51.2106C110.592 51.9607 108.316 52.2316 106.117 52.2316C99.5444 52.2316 97.8257 47.8074 97.9357 44.668C97.9357 41.7578 99.3175 36.7501 102.542 30.8117L114.394 8.82918C115.074 7.5651 114.167 6.01631 112.744 6.01631C112.063 6.01631 111.438 6.38443 111.108 6.98174L107.079 14.1842C106.605 15.0316 105.367 14.8649 105.106 13.9272C103.099 6.69697 97.2207 3.45337 90.3323 3.45337C82.4059 3.45337 74.3557 7.51648 67.6873 13.7744C67.6873 13.6702 67.6873 13.566 67.6873 13.4619C67.6873 8.10688 63.8856 3.33535 57.3134 3.33535C48.8713 3.33535 40.4293 10.9476 34.7164 19.9212C34.1046 20.8866 32.6334 20.2476 32.8947 19.1364C33.5065 16.5318 33.9259 14.3509 33.9259 12.8785C33.9259 7.40541 30.9285 3.33535 24.1295 3.33535C14.4431 3.33535 6.58539 11.9199 2.11687 22.0465C1.85563 22.6368 2.13749 23.3245 2.72871 23.5676C3.22369 23.776 3.79428 23.5953 4.09676 23.1508C6.64726 19.4141 11.2464 17.8861 16.863 17.8861C21.9296 17.8861 27.4637 20.1017 27.4637 28.8253C27.4637 42.1051 15.763 59.6563 2.66684 62.3443C2.28186 62.4207 2 62.761 2 63.1569C2 63.6153 2.36435 63.9834 2.81808 63.9834H36.5588C37.0126 63.9834 37.3769 63.6153 37.3769 63.1569V63.0874C37.3769 62.7193 37.1363 62.3999 36.7857 62.2957C30.2067 60.2398 26.02 54.0513 27.8143 41.1605C27.9312 40.4659 28.0412 39.6534 28.158 38.9449C31.9597 26.4916 41.873 18.3446 50.975 18.3446C54.2679 18.3446 57.114 19.5461 58.1934 21.8659C58.8327 23.255 58.709 24.8941 57.9596 26.2207C54.2886 32.7356 52.0681 39.9798 52.0681 46.9808C52.0681 59.5522 59.5614 66.5394 69.7015 66.5394C78.6042 66.5394 86.0632 60.1009 90.6211 53.3429C91.0817 52.6553 92.1404 53.0234 92.0785 53.8499C91.556 61.2608 94.5877 66.6504 102.191 66.6504C106.831 66.6504 110.723 64.4835 113.912 60.5315C115.081 59.0868 117.35 59.33 118.182 60.9969C118.408 61.4483 118.649 61.8928 118.903 62.3234C120.684 65.3447 123.461 67.7617 127.07 67.984C131.312 68.241 135.258 65.3655 137.685 62.0734C137.877 61.8094 138.063 61.5385 138.235 61.2607C140.854 64.0111 144.099 66.0115 148.107 66.4352C155.573 67.22 161.292 60.4412 165.115 54.857C167.163 51.8635 168.903 48.6756 170.553 45.4459C172.299 42.0357 173.956 38.5768 175.372 35.0137C177.654 29.3184 179.6 23.0466 179.16 16.8304L179.167 16.8374ZM71.104 51.5163C61.8919 51.5163 55.6635 47.7865 56.0072 41.0354C56.5847 30.5616 69.6053 18.4488 83.5471 18.4488C93.804 18.4488 99.4481 23.2203 99.2144 28.1099C98.6369 39.6394 84.4683 51.5093 71.0971 51.5093L71.104 51.5163ZM176.499 20.3032C176.327 22.9563 175.695 25.6651 174.891 28.3738C172.904 35.0762 169.783 41.4383 166.435 47.5503C164.854 50.4396 163.135 53.2804 161.093 55.8711C159.099 58.3854 156.817 60.9135 154.005 62.504C151.269 64.0528 148.244 64.1292 145.336 63.0319C142.93 62.122 140.889 60.4134 139.245 58.42C139.163 58.1839 138.998 57.9686 138.764 57.8158C138.627 57.6352 138.482 57.4408 138.352 57.2532C138.249 57.1004 138.139 56.9476 138.042 56.8018C134.282 51.3634 132.075 44.8208 131.106 38.3059C130.638 35.1874 130.384 31.7771 131.594 28.7975C132.556 26.436 135.004 24.1093 137.719 24.5261C137.932 24.5538 138.139 24.6094 138.338 24.6719C140.758 25.4081 142.263 28.1586 143.356 30.2561C144.91 33.2496 145.941 36.4931 146.443 39.8339C146.691 41.4591 146.766 43.1191 146.725 44.7652C146.691 46.4946 149.358 46.4946 149.392 44.7652C149.475 41.0354 148.904 37.2711 147.715 33.7358C147.392 32.7843 147.028 31.8535 146.629 30.9298C146.746 30.7909 146.842 30.6103 146.897 30.388C148.203 25.0608 149.736 19.685 152.562 14.9552C155.408 10.1905 159.986 5.90515 165.782 5.72456C168.373 5.64122 171.013 6.55107 172.849 8.23188C174.457 9.70432 175.413 11.5519 175.97 13.6494C176.547 15.8094 176.65 17.9764 176.492 20.3101L176.499 20.3032ZM124.719 64.5876C123.613 63.9903 122.623 63.0388 121.914 62.0248C120.285 59.7119 119.433 57.163 118.601 54.482C118.477 54.0792 118.353 53.6763 118.243 53.2665C117.783 51.6482 117.398 50.016 117.075 48.3699C116.669 46.2863 116.367 44.1887 116.133 42.0773C115.191 33.6177 114.765 24.9636 117.15 16.6985C118.202 13.059 119.694 9.28067 122.643 6.78029C123.736 5.8496 124.974 5.25225 126.335 4.91886C127.462 4.64104 128.913 4.59248 129.992 4.80084C132.577 5.27314 134.894 6.72477 136.31 8.90566C138.338 12.0311 138.297 16.1289 137.692 19.7683C137.575 20.449 137.444 21.1297 137.307 21.8034C135.987 21.7756 134.681 22.1229 133.505 22.7688C130.308 24.5191 128.679 27.9363 128.232 31.4507C127.779 35.0554 128.39 38.8198 129.16 42.3342C129.972 46.057 131.216 49.6756 132.866 53.0998C133.863 55.1765 135.052 57.2323 136.454 59.0937C134.928 61.858 132.378 64.2543 129.325 65.0669C127.758 65.4836 126.074 65.303 124.747 64.5876H124.719Z" stroke="white" stroke-width="2.44444" mask="url(#path-1-outside-1_323_287)"/>
</svg>
